<?xml version="1.0" encoding="UTF-8"?>
<svg width="500" height="500" version="1.0" xmlns="http://www.w3.org/2000/svg" xmlns:cc="http://creativecommons.org/ns#" xmlns:dc="http://purl.org/dc/elements/1.1/" xmlns:rdf="http://www.w3.org/1999/02/22-rdf-syntax-ns#" xmlns:xlink="http://www.w3.org/1999/xlink">
  <defs>
    <filter id="filter3409">
      <feGaussianBlur stdDeviation="17.268081"/>
    </filter>
    <filter id="filter4294">
      <feGaussianBlur stdDeviation="3.0064486"/>
    </filter>
    <radialGradient id="radialGradient4313" cx="601.766" cy="105.553" r="227.143" gradientTransform="matrix(.469732 -.461594 .829239 .833138 215.699 287.041)" gradientUnits="userSpaceOnUse">
      <stop style="stop-color:#ffffff" offset="0"/>
      <stop style="stop-color:#ffffff;stop-opacity:0" offset="1"/>
    </radialGradient>
    <filter id="filter4415">
      <feGaussianBlur stdDeviation="4.3671875"/>
    </filter>
    <filter id="filter4435">
      <feGaussianBlur stdDeviation="3.2116406"/>
    </filter>
  </defs>
  <metadata>
    <rdf:RDF>
      <cc:Work rdf:about="">
        <dc:format>image/svg+xml</dc:format>
        <dc:type rdf:resource="http://purl.org/dc/dcmitype/StillImage"/>
        <dc:title/>
      </cc:Work>
    </rdf:RDF>
  </metadata>
  <g transform="translate(-135.154 -190.866)">
    <path transform="matrix(.953075 0 0 .936291 36.5849 74.2899)" d="m591.429 398.076a220 217.143 0 1 1-440 0 220 217.143 0 1 1 440 0z" style="fill:none;filter:url(#filter3409);stroke-linecap:round;stroke-width:32.1;stroke:#000000"/>
  </g>
  <g>
    <path d="m455.267 258.184a206.359 206.359 0 1 1-412.719 0 206.359 206.359 0 1 1 412.719 0z" style="fill:#cdcdcd"/>
  </g>
  <g>
    <g style="fill:#00e600">
      <path d="m250 29.0938c-121.939 0-220.906 98.9676-220.906 220.906 0 121.939 98.9676 220.906 220.906 220.906s220.906-98.9676 220.906-220.906-98.9676-220.906-220.906-220.906zm0 40.0312c101.014-4e-6 183 81.0355 183 180.875 1e-5 99.8395-81.9861 180.875-183 180.875s-183-81.0355-183-180.875c1e-6 -99.8395 81.9861-180.875 183-180.875z" style="fill:#00e600"/>
      <path transform="matrix(.797668 -.603098 .596223 .802819 0 0)" d="m41.8207 334.782 142.436 0.99337c13.4477 9.08678 16.9648 28.1588-1.83779 38.2058l-140.452-1.26934c-17.7507-12.8061-13.4372-25.5312-0.14651-37.9298z" style="fill:#00e600"/>
    </g>
  </g>
  <g transform="translate(-135.154 -190.866)">
    <path transform="matrix(1.0065 0 0 1.0065 136.845 183.909)" d="m246.719 38.1875c-119.896 0-217.125 97.2285-217.125 217.125s97.2276 217.094 217.125 217.094 217.094-97.1963 217.094-217.094c0-119.897-97.1973-217.125-217.094-217.125z" style="fill:none;filter:url(#filter4415);stroke-linecap:round;stroke-width:2.5;stroke:#000000"/>
    <path transform="matrix(.873265 0 0 .866602 168.654 219.271)" d="m246.719 42.4375c-117.604 0-212.875 95.2709-212.875 212.875s95.2693 212.844 212.875 212.844 212.844-95.238 212.844-212.844c0-117.606-95.2397-212.875-212.844-212.875z" style="fill:none;filter:url(#filter4435);stroke-linecap:round;stroke-width:2.27278;stroke:#000000"/>
    <path transform="translate(135.154 190.866)" d="m235.382 244.095c108.776-82.3573 113.618-85.0722 113.618-85.0722 15.8879-0.51048 23.0772 7.67759 20.0575 26.0747l-112.322 88.2529c-31.49-2.9818-22.0113-17.3438-21.3541-29.2554z" style="fill:none;filter:url(#filter4294);stroke-width:2.6;stroke:#000000"/>
    <path d="m380.476 259.376c-68.2397 0.89919-133.483 44.2329-161.288 106.346-25.7531 55.8326-20.5709 124.821 14.221 175.722 34.3979 51.7054 96.2136 83.9307 158.579 80.929 57.6435-1.9474 113.232-32.8556 144.949-80.9056 34.2864-50.792 40.3531-119.165 14.5859-174.842-23.8169-53.1718-74.4579-93.6855-132.101-104.102-12.8058-2.45144-25.8768-3.47864-38.9466-3.14761z" style="fill:none;stroke-linecap:round;stroke-width:1.50281;stroke:#000000"/>
    <path d="m382.312 219.625c-76.041 0.13101-149.917 43.436-187.946 108.986-37.9088 63.6365-40.6874 146.547-6.67877 212.327 30.6722 60.6257 90.2394 105.747 157.389 117.652 65.8517 12.2377 136.679-7.08642 186.579-51.8081 51.8634-45.406 80.4919-116.081 74.0312-184.938-5.87593-73.7948-51.5721-142.696-117.281-176.719-32.5532-17.2093-69.2565-26.086-106.094-25.5z" style="fill:none;stroke-linecap:round;stroke-width:1.5;stroke:#000000"/>
    <path transform="matrix(.636944 0 0 .601843 -50.6112 246.713)" d="m635.719 33.8125c-102.962 0-185.719 82.7324-185.719 185.688 0 102.955 82.7636 185.719 185.719 185.719s185.687-82.7568 185.688-185.719c0-102.962-82.7255-185.688-185.688-185.688z" style="fill:url(#radialGradient4313);opacity:.629956"/>
  </g>
</svg>
